<svg xmlns="http://www.w3.org/2000/svg" viewBox="0 0 1920 1080"><g transform="
          rotate(144 960 540) 
          translate(-819.8098118457706 -461.14301916324587)
          scale(1.853968554006011)
        "><rect width="1920" height="1080" fill="rgb(76, 192, 239)"></rect><g transform="translate(0, 0)"><path fill="rgb(67, 180, 227)" fill-opacity="1" d="M0,88.236L53.333,87.519C106.667,86.802,213.333,85.368,320,85.145C426.667,84.923,533.333,85.912,640,86.024C746.667,86.135,853.333,85.368,960,75.796C1066.667,66.223,1173.333,47.846,1280,46.294C1386.667,44.742,1493.333,60.015,1600,55.334C1706.667,50.653,1813.333,26.017,1866.667,13.699L1920,1.382L1920,1080L1866.667,1080C1813.333,1080,1706.667,1080,1600,1080C1493.333,1080,1386.667,1080,1280,1080C1173.333,1080,1066.667,1080,960,1080C853.333,1080,746.667,1080,640,1080C533.333,1080,426.667,1080,320,1080C213.333,1080,106.667,1080,53.333,1080L0,1080Z"></path></g><g transform="translate(0, 90)"><path fill="rgb(60, 168, 216)" fill-opacity="1" d="M0,66.906L53.333,61.425C106.667,55.945,213.333,44.984,320,34.839C426.667,24.694,533.333,15.364,640,20.18C746.667,24.996,853.333,43.957,960,47.376C1066.667,50.795,1173.333,38.672,1280,32.604C1386.667,26.535,1493.333,26.523,1600,35.319C1706.667,44.115,1813.333,61.719,1866.667,70.522L1920,79.324L1920,990L1866.667,990C1813.333,990,1706.667,990,1600,990C1493.333,990,1386.667,990,1280,990C1173.333,990,1066.667,990,960,990C853.333,990,746.667,990,640,990C533.333,990,426.667,990,320,990C213.333,990,106.667,990,53.333,990L0,990Z"></path></g><g transform="translate(0, 180)"><path fill="rgb(55, 159, 206)" fill-opacity="1" d="M0,83.24L53.333,71.821C106.667,60.403,213.333,37.566,320,28.156C426.667,18.746,533.333,22.763,640,31.568C746.667,40.373,853.333,53.966,960,63.582C1066.667,73.199,1173.333,78.838,1280,75.129C1386.667,71.42,1493.333,58.363,1600,45.078C1706.667,31.793,1813.333,18.281,1866.667,11.524L1920,4.768L1920,900L1866.667,900C1813.333,900,1706.667,900,1600,900C1493.333,900,1386.667,900,1280,900C1173.333,900,1066.667,900,960,900C853.333,900,746.667,900,640,900C533.333,900,426.667,900,320,900C213.333,900,106.667,900,53.333,900L0,900Z"></path></g><g transform="translate(0, 270)"><path fill="rgb(53, 153, 198)" fill-opacity="1" d="M0,0.669L53.333,9.587C106.667,18.504,213.333,36.339,320,41.946C426.667,47.552,533.333,40.928,640,34.044C746.667,27.16,853.333,20.016,960,18.064C1066.667,16.112,1173.333,19.353,1280,21.652C1386.667,23.951,1493.333,25.308,1600,33.264C1706.667,41.22,1813.333,55.775,1866.667,63.053L1920,70.331L1920,810L1866.667,810C1813.333,810,1706.667,810,1600,810C1493.333,810,1386.667,810,1280,810C1173.333,810,1066.667,810,960,810C853.333,810,746.667,810,640,810C533.333,810,426.667,810,320,810C213.333,810,106.667,810,53.333,810L0,810Z"></path></g><g transform="translate(0, 360)"><path fill="rgb(56, 150, 193)" fill-opacity="1" d="M0,86.138L53.333,86.664C106.667,87.19,213.333,88.242,320,82.156C426.667,76.07,533.333,62.845,640,52.324C746.667,41.802,853.333,33.983,960,27.159C1066.667,20.335,1173.333,14.506,1280,23.118C1386.667,31.731,1493.333,54.786,1600,68.042C1706.667,81.297,1813.333,84.753,1866.667,86.481L1920,88.209L1920,720L1866.667,720C1813.333,720,1706.667,720,1600,720C1493.333,720,1386.667,720,1280,720C1173.333,720,1066.667,720,960,720C853.333,720,746.667,720,640,720C533.333,720,426.667,720,320,720C213.333,720,106.667,720,53.333,720L0,720Z"></path></g><g transform="translate(0, 450)"><path fill="rgb(66, 153, 192)" fill-opacity="1" d="M0,88.945L53.333,83.693C106.667,78.441,213.333,67.938,320,61.379C426.667,54.82,533.333,52.206,640,46.865C746.667,41.523,853.333,33.454,960,39.827C1066.667,46.201,1173.333,67.016,1280,75.697C1386.667,84.377,1493.333,80.923,1600,79.941C1706.667,78.959,1813.333,80.449,1866.667,81.194L1920,81.939L1920,630L1866.667,630C1813.333,630,1706.667,630,1600,630C1493.333,630,1386.667,630,1280,630C1173.333,630,1066.667,630,960,630C853.333,630,746.667,630,640,630C533.333,630,426.667,630,320,630C213.333,630,106.667,630,53.333,630L0,630Z"></path></g><g transform="translate(0, 540)"><path fill="rgb(82, 161, 194)" fill-opacity="1" d="M0,67.094L53.333,57.223C106.667,47.352,213.333,27.61,320,29.975C426.667,32.339,533.333,56.808,640,62.368C746.667,67.927,853.333,54.577,960,43.224C1066.667,31.872,1173.333,22.517,1280,22.324C1386.667,22.132,1493.333,31.1,1600,43.598C1706.667,56.096,1813.333,72.124,1866.667,80.137L1920,88.151L1920,540L1866.667,540C1813.333,540,1706.667,540,1600,540C1493.333,540,1386.667,540,1280,540C1173.333,540,1066.667,540,960,540C853.333,540,746.667,540,640,540C533.333,540,426.667,540,320,540C213.333,540,106.667,540,53.333,540L0,540Z"></path></g><g transform="translate(0, 630)"><path fill="rgb(105, 174, 200)" fill-opacity="1" d="M0,45.837L53.333,44.578C106.667,43.318,213.333,40.8,320,34.108C426.667,27.415,533.333,16.548,640,10.986C746.667,5.424,853.333,5.167,960,10.059C1066.667,14.952,1173.333,24.995,1280,38.606C1386.667,52.217,1493.333,69.396,1600,75.221C1706.667,81.046,1813.333,75.517,1866.667,72.753L1920,69.988L1920,450L1866.667,450C1813.333,450,1706.667,450,1600,450C1493.333,450,1386.667,450,1280,450C1173.333,450,1066.667,450,960,450C853.333,450,746.667,450,640,450C533.333,450,426.667,450,320,450C213.333,450,106.667,450,53.333,450L0,450Z"></path></g><g transform="translate(0, 720)"><path fill="rgb(133, 190, 209)" fill-opacity="1" d="M0,12.297L53.333,24.278C106.667,36.26,213.333,60.222,320,63.966C426.667,67.709,533.333,51.232,640,47.371C746.667,43.509,853.333,52.263,960,52.802C1066.667,53.341,1173.333,45.666,1280,46.568C1386.667,47.469,1493.333,56.947,1600,61.557C1706.667,66.168,1813.333,65.911,1866.667,65.782L1920,65.654L1920,360L1866.667,360C1813.333,360,1706.667,360,1600,360C1493.333,360,1386.667,360,1280,360C1173.333,360,1066.667,360,960,360C853.333,360,746.667,360,640,360C533.333,360,426.667,360,320,360C213.333,360,106.667,360,53.333,360L0,360Z"></path></g><g transform="translate(0, 810)"><path fill="rgb(164, 210, 220)" fill-opacity="1" d="M0,39.893L53.333,41.709C106.667,43.524,213.333,47.156,320,48.93C426.667,50.705,533.333,50.624,640,49.741C746.667,48.858,853.333,47.173,960,45.694C1066.667,44.216,1173.333,42.943,1280,36.89C1386.667,30.836,1493.333,20.001,1600,13.531C1706.667,7.061,1813.333,4.956,1866.667,3.904L1920,2.851L1920,270L1866.667,270C1813.333,270,1706.667,270,1600,270C1493.333,270,1386.667,270,1280,270C1173.333,270,1066.667,270,960,270C853.333,270,746.667,270,640,270C533.333,270,426.667,270,320,270C213.333,270,106.667,270,53.333,270L0,270Z"></path></g><g transform="translate(0, 900)"><path fill="rgb(197, 232, 233)" fill-opacity="1" d="M0,27.203L53.333,28.247C106.667,29.292,213.333,31.38,320,31.854C426.667,32.327,533.333,31.185,640,33.853C746.667,36.521,853.333,42.998,960,47.666C1066.667,52.334,1173.333,55.191,1280,59.665C1386.667,64.139,1493.333,70.229,1600,69.189C1706.667,68.149,1813.333,59.979,1866.667,55.894L1920,51.809L1920,180L1866.667,180C1813.333,180,1706.667,180,1600,180C1493.333,180,1386.667,180,1280,180C1173.333,180,1066.667,180,960,180C853.333,180,746.667,180,640,180C533.333,180,426.667,180,320,180C213.333,180,106.667,180,53.333,180L0,180Z"></path></g><g transform="translate(0, 990)"><path fill="rgb(232, 255, 246)" fill-opacity="1" d="M0,25.631L53.333,30.212C106.667,34.792,213.333,43.954,320,42.498C426.667,41.043,533.333,28.972,640,32.248C746.667,35.524,853.333,54.148,960,57.804C1066.667,61.459,1173.333,50.147,1280,52.667C1386.667,55.187,1493.333,71.54,1600,78.433C1706.667,85.325,1813.333,82.756,1866.667,81.471L1920,80.187L1920,90L1866.667,90C1813.333,90,1706.667,90,1600,90C1493.333,90,1386.667,90,1280,90C1173.333,90,1066.667,90,960,90C853.333,90,746.667,90,640,90C533.333,90,426.667,90,320,90C213.333,90,106.667,90,53.333,90L0,90Z"></path></g></g></svg>